<mxfile host="app.diagrams.net" agent="Mozilla/5.0 (Windows NT 10.0; Win64; x64) AppleWebKit/537.36 (KHTML, like Gecko) Chrome/130.0.0.0 Safari/537.36" version="24.8.0" pages="2">
  <diagram name="Страница — 1" id="QmDF2JZO_5VSszyQv1ma">
    <mxGraphModel dx="890" dy="384" grid="1" gridSize="10" guides="1" tooltips="1" connect="1" arrows="1" fold="1" page="1" pageScale="1" pageWidth="827" pageHeight="1169" math="0" shadow="0">
      <root>
        <mxCell id="0" />
        <mxCell id="1" parent="0" />
        <mxCell id="HeWXbDUlpYKBtV57ER6B-11" style="edgeStyle=orthogonalEdgeStyle;rounded=0;orthogonalLoop=1;jettySize=auto;html=1;exitX=0;exitY=0.5;exitDx=0;exitDy=0;entryX=0.5;entryY=1;entryDx=0;entryDy=0;" edge="1" parent="1" source="HeWXbDUlpYKBtV57ER6B-1" target="HeWXbDUlpYKBtV57ER6B-5">
          <mxGeometry relative="1" as="geometry">
            <Array as="points">
              <mxPoint x="240" y="1105" />
            </Array>
          </mxGeometry>
        </mxCell>
        <mxCell id="HeWXbDUlpYKBtV57ER6B-14" style="edgeStyle=orthogonalEdgeStyle;rounded=0;orthogonalLoop=1;jettySize=auto;html=1;exitX=0;exitY=0.5;exitDx=0;exitDy=0;entryX=0.5;entryY=1;entryDx=0;entryDy=0;" edge="1" parent="1" source="HeWXbDUlpYKBtV57ER6B-1" target="HeWXbDUlpYKBtV57ER6B-3">
          <mxGeometry relative="1" as="geometry" />
        </mxCell>
        <mxCell id="HeWXbDUlpYKBtV57ER6B-15" style="edgeStyle=orthogonalEdgeStyle;rounded=0;orthogonalLoop=1;jettySize=auto;html=1;exitX=1;exitY=0.5;exitDx=0;exitDy=0;entryX=0.5;entryY=1;entryDx=0;entryDy=0;" edge="1" parent="1" source="HeWXbDUlpYKBtV57ER6B-1" target="HeWXbDUlpYKBtV57ER6B-8">
          <mxGeometry relative="1" as="geometry" />
        </mxCell>
        <mxCell id="HeWXbDUlpYKBtV57ER6B-40" style="edgeStyle=orthogonalEdgeStyle;rounded=0;orthogonalLoop=1;jettySize=auto;html=1;exitX=1;exitY=0.5;exitDx=0;exitDy=0;entryX=0.5;entryY=1;entryDx=0;entryDy=0;" edge="1" parent="1" source="HeWXbDUlpYKBtV57ER6B-1" target="HeWXbDUlpYKBtV57ER6B-7">
          <mxGeometry relative="1" as="geometry" />
        </mxCell>
        <mxCell id="HeWXbDUlpYKBtV57ER6B-1" value="Интернет-магазин" style="rounded=0;whiteSpace=wrap;html=1;" vertex="1" parent="1">
          <mxGeometry x="325" y="1080" width="160" height="50" as="geometry" />
        </mxCell>
        <mxCell id="HeWXbDUlpYKBtV57ER6B-21" style="edgeStyle=orthogonalEdgeStyle;rounded=0;orthogonalLoop=1;jettySize=auto;html=1;exitX=0.5;exitY=0;exitDx=0;exitDy=0;" edge="1" parent="1" source="HeWXbDUlpYKBtV57ER6B-3">
          <mxGeometry relative="1" as="geometry">
            <mxPoint x="120" y="960" as="targetPoint" />
            <Array as="points">
              <mxPoint x="120" y="960" />
              <mxPoint x="120" y="960" />
            </Array>
          </mxGeometry>
        </mxCell>
        <mxCell id="HeWXbDUlpYKBtV57ER6B-34" style="edgeStyle=orthogonalEdgeStyle;rounded=0;orthogonalLoop=1;jettySize=auto;html=1;exitX=1;exitY=0.5;exitDx=0;exitDy=0;entryX=0.75;entryY=1;entryDx=0;entryDy=0;" edge="1" parent="1" source="HeWXbDUlpYKBtV57ER6B-3" target="HeWXbDUlpYKBtV57ER6B-16">
          <mxGeometry relative="1" as="geometry" />
        </mxCell>
        <mxCell id="HeWXbDUlpYKBtV57ER6B-35" style="edgeStyle=orthogonalEdgeStyle;rounded=0;orthogonalLoop=1;jettySize=auto;html=1;exitX=0;exitY=0.5;exitDx=0;exitDy=0;entryX=0.25;entryY=1;entryDx=0;entryDy=0;" edge="1" parent="1" source="HeWXbDUlpYKBtV57ER6B-3" target="HeWXbDUlpYKBtV57ER6B-17">
          <mxGeometry relative="1" as="geometry" />
        </mxCell>
        <mxCell id="HeWXbDUlpYKBtV57ER6B-3" value="Каталог товаров" style="rounded=0;whiteSpace=wrap;html=1;" vertex="1" parent="1">
          <mxGeometry x="60" y="1010" width="120" height="30" as="geometry" />
        </mxCell>
        <mxCell id="HeWXbDUlpYKBtV57ER6B-29" style="edgeStyle=orthogonalEdgeStyle;rounded=0;orthogonalLoop=1;jettySize=auto;html=1;exitX=0.5;exitY=0;exitDx=0;exitDy=0;entryX=0.5;entryY=1;entryDx=0;entryDy=0;" edge="1" parent="1" source="HeWXbDUlpYKBtV57ER6B-5" target="HeWXbDUlpYKBtV57ER6B-26">
          <mxGeometry relative="1" as="geometry" />
        </mxCell>
        <mxCell id="HeWXbDUlpYKBtV57ER6B-32" style="edgeStyle=orthogonalEdgeStyle;rounded=0;orthogonalLoop=1;jettySize=auto;html=1;exitX=1;exitY=0.5;exitDx=0;exitDy=0;entryX=0.75;entryY=1;entryDx=0;entryDy=0;" edge="1" parent="1" source="HeWXbDUlpYKBtV57ER6B-5" target="HeWXbDUlpYKBtV57ER6B-27">
          <mxGeometry relative="1" as="geometry" />
        </mxCell>
        <mxCell id="HeWXbDUlpYKBtV57ER6B-33" style="edgeStyle=orthogonalEdgeStyle;rounded=0;orthogonalLoop=1;jettySize=auto;html=1;exitX=0;exitY=0.5;exitDx=0;exitDy=0;entryX=0.25;entryY=1;entryDx=0;entryDy=0;" edge="1" parent="1" source="HeWXbDUlpYKBtV57ER6B-5" target="HeWXbDUlpYKBtV57ER6B-25">
          <mxGeometry relative="1" as="geometry" />
        </mxCell>
        <mxCell id="HeWXbDUlpYKBtV57ER6B-5" value="Корзина" style="rounded=0;whiteSpace=wrap;html=1;" vertex="1" parent="1">
          <mxGeometry x="180" y="890" width="120" height="30" as="geometry" />
        </mxCell>
        <mxCell id="HeWXbDUlpYKBtV57ER6B-38" style="edgeStyle=orthogonalEdgeStyle;rounded=0;orthogonalLoop=1;jettySize=auto;html=1;exitX=0;exitY=0.5;exitDx=0;exitDy=0;entryX=0.25;entryY=1;entryDx=0;entryDy=0;" edge="1" parent="1" source="HeWXbDUlpYKBtV57ER6B-7" target="HeWXbDUlpYKBtV57ER6B-36">
          <mxGeometry relative="1" as="geometry" />
        </mxCell>
        <mxCell id="HeWXbDUlpYKBtV57ER6B-39" style="edgeStyle=orthogonalEdgeStyle;rounded=0;orthogonalLoop=1;jettySize=auto;html=1;exitX=1;exitY=0.5;exitDx=0;exitDy=0;entryX=0.75;entryY=1;entryDx=0;entryDy=0;" edge="1" parent="1" source="HeWXbDUlpYKBtV57ER6B-7" target="HeWXbDUlpYKBtV57ER6B-37">
          <mxGeometry relative="1" as="geometry" />
        </mxCell>
        <mxCell id="HeWXbDUlpYKBtV57ER6B-42" style="edgeStyle=orthogonalEdgeStyle;rounded=0;orthogonalLoop=1;jettySize=auto;html=1;exitX=0.5;exitY=0;exitDx=0;exitDy=0;entryX=0.5;entryY=1;entryDx=0;entryDy=0;" edge="1" parent="1" source="HeWXbDUlpYKBtV57ER6B-7" target="HeWXbDUlpYKBtV57ER6B-41">
          <mxGeometry relative="1" as="geometry" />
        </mxCell>
        <mxCell id="HeWXbDUlpYKBtV57ER6B-7" value="Оформление заказа" style="rounded=0;whiteSpace=wrap;html=1;" vertex="1" parent="1">
          <mxGeometry x="470" y="890" width="120" height="30" as="geometry" />
        </mxCell>
        <mxCell id="HeWXbDUlpYKBtV57ER6B-8" value="Оформление заказа" style="rounded=0;whiteSpace=wrap;html=1;" vertex="1" parent="1">
          <mxGeometry x="630" y="1010" width="120" height="30" as="geometry" />
        </mxCell>
        <mxCell id="HeWXbDUlpYKBtV57ER6B-16" value="&lt;font style=&quot;font-size: 8px;&quot;&gt;Описание товара&lt;/font&gt;" style="rounded=0;whiteSpace=wrap;html=1;" vertex="1" parent="1">
          <mxGeometry x="140" y="970" width="90" height="20" as="geometry" />
        </mxCell>
        <mxCell id="HeWXbDUlpYKBtV57ER6B-17" value="&lt;font style=&quot;font-size: 8px;&quot;&gt;Поиск товара&lt;/font&gt;" style="rounded=0;whiteSpace=wrap;html=1;" vertex="1" parent="1">
          <mxGeometry x="10" y="970" width="90" height="20" as="geometry" />
        </mxCell>
        <mxCell id="HeWXbDUlpYKBtV57ER6B-22" value="&lt;font style=&quot;font-size: 8px;&quot;&gt;Категории&lt;/font&gt;" style="rounded=0;whiteSpace=wrap;html=1;" vertex="1" parent="1">
          <mxGeometry x="60" y="940" width="120" height="20" as="geometry" />
        </mxCell>
        <mxCell id="HeWXbDUlpYKBtV57ER6B-25" value="&lt;font style=&quot;font-size: 8px;&quot;&gt;Категории&lt;/font&gt;" style="rounded=0;whiteSpace=wrap;html=1;" vertex="1" parent="1">
          <mxGeometry x="100" y="860" width="120" height="20" as="geometry" />
        </mxCell>
        <mxCell id="HeWXbDUlpYKBtV57ER6B-26" value="&lt;font style=&quot;font-size: 8px;&quot;&gt;Категории&lt;/font&gt;" style="rounded=0;whiteSpace=wrap;html=1;" vertex="1" parent="1">
          <mxGeometry x="180" y="830" width="120" height="20" as="geometry" />
        </mxCell>
        <mxCell id="HeWXbDUlpYKBtV57ER6B-27" value="&lt;font style=&quot;font-size: 8px;&quot;&gt;Категории&lt;/font&gt;" style="rounded=0;whiteSpace=wrap;html=1;" vertex="1" parent="1">
          <mxGeometry x="260" y="860" width="120" height="20" as="geometry" />
        </mxCell>
        <mxCell id="HeWXbDUlpYKBtV57ER6B-36" value="&lt;font style=&quot;font-size: 8px;&quot;&gt;Категории&lt;/font&gt;" style="rounded=0;whiteSpace=wrap;html=1;" vertex="1" parent="1">
          <mxGeometry x="390" y="860" width="120" height="20" as="geometry" />
        </mxCell>
        <mxCell id="HeWXbDUlpYKBtV57ER6B-37" value="&lt;font style=&quot;font-size: 8px;&quot;&gt;Категории&lt;/font&gt;" style="rounded=0;whiteSpace=wrap;html=1;" vertex="1" parent="1">
          <mxGeometry x="550" y="860" width="120" height="20" as="geometry" />
        </mxCell>
        <mxCell id="HeWXbDUlpYKBtV57ER6B-41" value="&lt;font style=&quot;font-size: 8px;&quot;&gt;Категории&lt;/font&gt;" style="rounded=0;whiteSpace=wrap;html=1;" vertex="1" parent="1">
          <mxGeometry x="470" y="830" width="120" height="20" as="geometry" />
        </mxCell>
      </root>
    </mxGraphModel>
  </diagram>
  <diagram id="zCl2oO7nwVzL9gEu6W0Z" name="Страница — 2">
    <mxGraphModel dx="1290" dy="557" grid="0" gridSize="10" guides="1" tooltips="1" connect="1" arrows="1" fold="1" page="0" pageScale="1" pageWidth="827" pageHeight="1169" math="0" shadow="0">
      <root>
        <mxCell id="0" />
        <mxCell id="1" parent="0" />
        <mxCell id="IuRtwubkKMx68aXz7d5G-1" value="Интернет-магазин" style="rounded=0;whiteSpace=wrap;html=1;fillColor=#FFFF66;" parent="1" vertex="1">
          <mxGeometry x="330" y="800" width="140" height="60" as="geometry" />
        </mxCell>
        <mxCell id="IuRtwubkKMx68aXz7d5G-3" value="" style="endArrow=none;html=1;rounded=0;exitX=0.5;exitY=0;exitDx=0;exitDy=0;" parent="1" source="IuRtwubkKMx68aXz7d5G-1" edge="1">
          <mxGeometry width="50" height="50" relative="1" as="geometry">
            <mxPoint x="375" y="790" as="sourcePoint" />
            <mxPoint x="400" y="390" as="targetPoint" />
          </mxGeometry>
        </mxCell>
        <mxCell id="IuRtwubkKMx68aXz7d5G-5" value="" style="endArrow=classic;html=1;rounded=0;entryX=1;entryY=0.5;entryDx=0;entryDy=0;" parent="1" target="BndhGn_ARndx98cxsCqQ-1" edge="1">
          <mxGeometry width="50" height="50" relative="1" as="geometry">
            <mxPoint x="400" y="685" as="sourcePoint" />
            <mxPoint x="290" y="684.66" as="targetPoint" />
          </mxGeometry>
        </mxCell>
        <mxCell id="IuRtwubkKMx68aXz7d5G-6" value="" style="endArrow=classic;html=1;rounded=0;" parent="1" edge="1">
          <mxGeometry width="50" height="50" relative="1" as="geometry">
            <mxPoint x="400" y="684.66" as="sourcePoint" />
            <mxPoint x="510" y="684.66" as="targetPoint" />
          </mxGeometry>
        </mxCell>
        <mxCell id="B-I1zD4V9BiK2UbXRFSd-4" style="edgeStyle=orthogonalEdgeStyle;rounded=0;orthogonalLoop=1;jettySize=auto;html=1;exitX=0;exitY=0.5;exitDx=0;exitDy=0;entryX=1;entryY=0.5;entryDx=0;entryDy=0;" parent="1" source="BndhGn_ARndx98cxsCqQ-1" target="B-I1zD4V9BiK2UbXRFSd-1" edge="1">
          <mxGeometry relative="1" as="geometry" />
        </mxCell>
        <mxCell id="B-I1zD4V9BiK2UbXRFSd-5" style="edgeStyle=orthogonalEdgeStyle;rounded=0;orthogonalLoop=1;jettySize=auto;html=1;exitX=0.5;exitY=0;exitDx=0;exitDy=0;entryX=0.5;entryY=1;entryDx=0;entryDy=0;" parent="1" source="BndhGn_ARndx98cxsCqQ-1" target="B-I1zD4V9BiK2UbXRFSd-2" edge="1">
          <mxGeometry relative="1" as="geometry" />
        </mxCell>
        <mxCell id="B-I1zD4V9BiK2UbXRFSd-6" style="edgeStyle=orthogonalEdgeStyle;rounded=0;orthogonalLoop=1;jettySize=auto;html=1;exitX=0.5;exitY=1;exitDx=0;exitDy=0;entryX=0.5;entryY=0;entryDx=0;entryDy=0;" parent="1" source="BndhGn_ARndx98cxsCqQ-1" target="B-I1zD4V9BiK2UbXRFSd-3" edge="1">
          <mxGeometry relative="1" as="geometry" />
        </mxCell>
        <mxCell id="BndhGn_ARndx98cxsCqQ-1" value="Каталог товаров" style="rounded=0;whiteSpace=wrap;html=1;fillColor=#FFFF99;" parent="1" vertex="1">
          <mxGeometry x="160" y="670" width="120" height="30" as="geometry" />
        </mxCell>
        <mxCell id="B-I1zD4V9BiK2UbXRFSd-1" value="&lt;span style=&quot;font-size: 8px;&quot;&gt;Поиск товара&lt;/span&gt;" style="rounded=0;whiteSpace=wrap;html=1;fillColor=#FFFFCC;" parent="1" vertex="1">
          <mxGeometry x="40" y="675" width="100" height="20" as="geometry" />
        </mxCell>
        <mxCell id="B-I1zD4V9BiK2UbXRFSd-2" value="&lt;font style=&quot;font-size: 8px;&quot;&gt;Категории&lt;/font&gt;" style="rounded=0;whiteSpace=wrap;html=1;fillColor=#FFFFCC;" parent="1" vertex="1">
          <mxGeometry x="170" y="630" width="100" height="20" as="geometry" />
        </mxCell>
        <mxCell id="B-I1zD4V9BiK2UbXRFSd-3" value="&lt;span style=&quot;font-size: 8px;&quot;&gt;Описание товара&lt;/span&gt;" style="rounded=0;whiteSpace=wrap;html=1;fillColor=#FFFFCC;" parent="1" vertex="1">
          <mxGeometry x="170" y="720" width="100" height="20" as="geometry" />
        </mxCell>
        <mxCell id="B-I1zD4V9BiK2UbXRFSd-12" style="edgeStyle=orthogonalEdgeStyle;rounded=0;orthogonalLoop=1;jettySize=auto;html=1;exitX=1;exitY=0.5;exitDx=0;exitDy=0;" parent="1" source="B-I1zD4V9BiK2UbXRFSd-8" target="B-I1zD4V9BiK2UbXRFSd-11" edge="1">
          <mxGeometry relative="1" as="geometry" />
        </mxCell>
        <mxCell id="B-I1zD4V9BiK2UbXRFSd-13" style="edgeStyle=orthogonalEdgeStyle;rounded=0;orthogonalLoop=1;jettySize=auto;html=1;exitX=0.5;exitY=0;exitDx=0;exitDy=0;entryX=0.5;entryY=1;entryDx=0;entryDy=0;" parent="1" source="B-I1zD4V9BiK2UbXRFSd-8" target="B-I1zD4V9BiK2UbXRFSd-9" edge="1">
          <mxGeometry relative="1" as="geometry" />
        </mxCell>
        <mxCell id="B-I1zD4V9BiK2UbXRFSd-14" style="edgeStyle=orthogonalEdgeStyle;rounded=0;orthogonalLoop=1;jettySize=auto;html=1;exitX=0.5;exitY=1;exitDx=0;exitDy=0;" parent="1" source="B-I1zD4V9BiK2UbXRFSd-8" target="B-I1zD4V9BiK2UbXRFSd-10" edge="1">
          <mxGeometry relative="1" as="geometry" />
        </mxCell>
        <mxCell id="B-I1zD4V9BiK2UbXRFSd-8" value="Корзина" style="rounded=0;whiteSpace=wrap;html=1;fillColor=#FFFF99;" parent="1" vertex="1">
          <mxGeometry x="510" y="670" width="120" height="30" as="geometry" />
        </mxCell>
        <mxCell id="B-I1zD4V9BiK2UbXRFSd-9" value="&lt;span style=&quot;font-size: 8px;&quot;&gt;Добавление товаров&lt;/span&gt;" style="rounded=0;whiteSpace=wrap;html=1;fillColor=#FFFFCC;" parent="1" vertex="1">
          <mxGeometry x="520" y="630" width="100" height="20" as="geometry" />
        </mxCell>
        <mxCell id="B-I1zD4V9BiK2UbXRFSd-10" value="&lt;span style=&quot;font-size: 8px;&quot;&gt;Изменение количества&lt;/span&gt;" style="rounded=0;whiteSpace=wrap;html=1;fillColor=#FFFFCC;" parent="1" vertex="1">
          <mxGeometry x="520" y="720" width="100" height="20" as="geometry" />
        </mxCell>
        <mxCell id="B-I1zD4V9BiK2UbXRFSd-11" value="&lt;span style=&quot;font-size: 8px;&quot;&gt;Удаление товаров&lt;/span&gt;" style="rounded=0;whiteSpace=wrap;html=1;fillColor=#FFFFCC;" parent="1" vertex="1">
          <mxGeometry x="650" y="675" width="100" height="20" as="geometry" />
        </mxCell>
        <mxCell id="B-I1zD4V9BiK2UbXRFSd-15" value="" style="endArrow=classic;html=1;rounded=0;fillColor=#FFFFFF;" parent="1" edge="1">
          <mxGeometry width="50" height="50" relative="1" as="geometry">
            <mxPoint x="400" y="524.66" as="sourcePoint" />
            <mxPoint x="480" y="524.66" as="targetPoint" />
          </mxGeometry>
        </mxCell>
        <mxCell id="B-I1zD4V9BiK2UbXRFSd-18" value="" style="endArrow=classic;html=1;rounded=0;" parent="1" edge="1">
          <mxGeometry width="50" height="50" relative="1" as="geometry">
            <mxPoint x="400" y="524.66" as="sourcePoint" />
            <mxPoint x="320" y="524.66" as="targetPoint" />
          </mxGeometry>
        </mxCell>
        <mxCell id="B-I1zD4V9BiK2UbXRFSd-26" style="edgeStyle=orthogonalEdgeStyle;rounded=0;orthogonalLoop=1;jettySize=auto;html=1;exitX=0;exitY=0.5;exitDx=0;exitDy=0;entryX=1;entryY=0.5;entryDx=0;entryDy=0;" parent="1" source="B-I1zD4V9BiK2UbXRFSd-19" target="B-I1zD4V9BiK2UbXRFSd-22" edge="1">
          <mxGeometry relative="1" as="geometry" />
        </mxCell>
        <mxCell id="B-I1zD4V9BiK2UbXRFSd-27" style="edgeStyle=orthogonalEdgeStyle;rounded=0;orthogonalLoop=1;jettySize=auto;html=1;exitX=0.5;exitY=0;exitDx=0;exitDy=0;entryX=0.5;entryY=1;entryDx=0;entryDy=0;" parent="1" source="B-I1zD4V9BiK2UbXRFSd-19" target="B-I1zD4V9BiK2UbXRFSd-23" edge="1">
          <mxGeometry relative="1" as="geometry" />
        </mxCell>
        <mxCell id="sN7C9sejL7yAAWzN3uY7-1" style="edgeStyle=orthogonalEdgeStyle;rounded=0;orthogonalLoop=1;jettySize=auto;html=1;exitX=0.5;exitY=1;exitDx=0;exitDy=0;entryX=0.5;entryY=0;entryDx=0;entryDy=0;" parent="1" source="B-I1zD4V9BiK2UbXRFSd-19" target="NAVzvwq0vo-NZvIJKuEt-4" edge="1">
          <mxGeometry relative="1" as="geometry" />
        </mxCell>
        <mxCell id="B-I1zD4V9BiK2UbXRFSd-19" value="Учёт пользователей" style="rounded=0;whiteSpace=wrap;html=1;fillColor=#FFFF99;" parent="1" vertex="1">
          <mxGeometry x="200" y="510" width="120" height="30" as="geometry" />
        </mxCell>
        <mxCell id="B-I1zD4V9BiK2UbXRFSd-28" style="edgeStyle=orthogonalEdgeStyle;rounded=0;orthogonalLoop=1;jettySize=auto;html=1;exitX=0.5;exitY=0;exitDx=0;exitDy=0;entryX=0.5;entryY=1;entryDx=0;entryDy=0;" parent="1" source="B-I1zD4V9BiK2UbXRFSd-20" target="B-I1zD4V9BiK2UbXRFSd-24" edge="1">
          <mxGeometry relative="1" as="geometry" />
        </mxCell>
        <mxCell id="B-I1zD4V9BiK2UbXRFSd-29" style="edgeStyle=orthogonalEdgeStyle;rounded=0;orthogonalLoop=1;jettySize=auto;html=1;exitX=1;exitY=0.5;exitDx=0;exitDy=0;entryX=0;entryY=0.5;entryDx=0;entryDy=0;" parent="1" source="B-I1zD4V9BiK2UbXRFSd-20" target="B-I1zD4V9BiK2UbXRFSd-21" edge="1">
          <mxGeometry relative="1" as="geometry" />
        </mxCell>
        <mxCell id="NAVzvwq0vo-NZvIJKuEt-2" style="edgeStyle=orthogonalEdgeStyle;rounded=0;orthogonalLoop=1;jettySize=auto;html=1;exitX=0.5;exitY=1;exitDx=0;exitDy=0;entryX=0.5;entryY=0;entryDx=0;entryDy=0;" parent="1" source="B-I1zD4V9BiK2UbXRFSd-20" target="NAVzvwq0vo-NZvIJKuEt-1" edge="1">
          <mxGeometry relative="1" as="geometry" />
        </mxCell>
        <mxCell id="B-I1zD4V9BiK2UbXRFSd-20" value="Оформление заказа" style="rounded=0;whiteSpace=wrap;html=1;fillColor=#FFFF99;" parent="1" vertex="1">
          <mxGeometry x="480" y="510" width="120" height="30" as="geometry" />
        </mxCell>
        <mxCell id="B-I1zD4V9BiK2UbXRFSd-21" value="&lt;span style=&quot;font-size: 8px;&quot;&gt;Подтверждение заказа&lt;/span&gt;" style="rounded=0;whiteSpace=wrap;html=1;fillColor=#FFFFCC;" parent="1" vertex="1">
          <mxGeometry x="620" y="515" width="100" height="20" as="geometry" />
        </mxCell>
        <mxCell id="B-I1zD4V9BiK2UbXRFSd-22" value="&lt;span style=&quot;font-size: 8px;&quot;&gt;Вход в систему&lt;/span&gt;" style="rounded=0;whiteSpace=wrap;html=1;fillColor=#FFFFCC;" parent="1" vertex="1">
          <mxGeometry x="80" y="515" width="100" height="20" as="geometry" />
        </mxCell>
        <mxCell id="B-I1zD4V9BiK2UbXRFSd-23" value="&lt;span style=&quot;font-size: 8px;&quot;&gt;Регистрация&lt;/span&gt;" style="rounded=0;whiteSpace=wrap;html=1;fillColor=#FFFFCC;" parent="1" vertex="1">
          <mxGeometry x="210" y="470" width="100" height="20" as="geometry" />
        </mxCell>
        <mxCell id="B-I1zD4V9BiK2UbXRFSd-24" value="&lt;span style=&quot;font-size: 8px;&quot;&gt;Оплата заказа&lt;/span&gt;" style="rounded=0;whiteSpace=wrap;html=1;fillColor=#FFFFCC;" parent="1" vertex="1">
          <mxGeometry x="490" y="470" width="100" height="20" as="geometry" />
        </mxCell>
        <mxCell id="B-I1zD4V9BiK2UbXRFSd-33" style="edgeStyle=orthogonalEdgeStyle;rounded=0;orthogonalLoop=1;jettySize=auto;html=1;exitX=0;exitY=0.5;exitDx=0;exitDy=0;entryX=1;entryY=0.5;entryDx=0;entryDy=0;" parent="1" source="B-I1zD4V9BiK2UbXRFSd-25" target="B-I1zD4V9BiK2UbXRFSd-30" edge="1">
          <mxGeometry relative="1" as="geometry" />
        </mxCell>
        <mxCell id="B-I1zD4V9BiK2UbXRFSd-34" style="edgeStyle=orthogonalEdgeStyle;rounded=0;orthogonalLoop=1;jettySize=auto;html=1;exitX=0.5;exitY=0;exitDx=0;exitDy=0;entryX=0.5;entryY=1;entryDx=0;entryDy=0;" parent="1" source="B-I1zD4V9BiK2UbXRFSd-25" target="B-I1zD4V9BiK2UbXRFSd-32" edge="1">
          <mxGeometry relative="1" as="geometry" />
        </mxCell>
        <mxCell id="B-I1zD4V9BiK2UbXRFSd-35" style="edgeStyle=orthogonalEdgeStyle;rounded=0;orthogonalLoop=1;jettySize=auto;html=1;exitX=1;exitY=0.5;exitDx=0;exitDy=0;entryX=0;entryY=0.5;entryDx=0;entryDy=0;" parent="1" source="B-I1zD4V9BiK2UbXRFSd-25" target="B-I1zD4V9BiK2UbXRFSd-31" edge="1">
          <mxGeometry relative="1" as="geometry" />
        </mxCell>
        <mxCell id="B-I1zD4V9BiK2UbXRFSd-25" value="&lt;span style=&quot;text-align: left;&quot;&gt;&lt;font style=&quot;font-size: 12px;&quot;&gt;Административная панель&lt;/font&gt;&lt;/span&gt;" style="rounded=0;whiteSpace=wrap;html=1;fillColor=#FFFF99;" parent="1" vertex="1">
          <mxGeometry x="340" y="370" width="120" height="30" as="geometry" />
        </mxCell>
        <mxCell id="B-I1zD4V9BiK2UbXRFSd-30" value="&lt;span style=&quot;font-size: 8px;&quot;&gt;Управление товарами&lt;/span&gt;" style="rounded=0;whiteSpace=wrap;html=1;fillColor=#FFFFCC;" parent="1" vertex="1">
          <mxGeometry x="220" y="375" width="100" height="20" as="geometry" />
        </mxCell>
        <mxCell id="JsgA1Kp7t1jn5dpFGUc1-2" style="edgeStyle=orthogonalEdgeStyle;rounded=0;orthogonalLoop=1;jettySize=auto;html=1;exitX=1;exitY=0.5;exitDx=0;exitDy=0;entryX=1;entryY=0.5;entryDx=0;entryDy=0;" edge="1" parent="1" source="B-I1zD4V9BiK2UbXRFSd-31" target="B-I1zD4V9BiK2UbXRFSd-11">
          <mxGeometry relative="1" as="geometry" />
        </mxCell>
        <mxCell id="JsgA1Kp7t1jn5dpFGUc1-12" style="edgeStyle=orthogonalEdgeStyle;rounded=0;orthogonalLoop=1;jettySize=auto;html=1;exitX=1;exitY=0.5;exitDx=0;exitDy=0;" edge="1" parent="1" source="B-I1zD4V9BiK2UbXRFSd-31">
          <mxGeometry relative="1" as="geometry">
            <mxPoint x="580" y="385" as="targetPoint" />
          </mxGeometry>
        </mxCell>
        <mxCell id="B-I1zD4V9BiK2UbXRFSd-31" value="&lt;span style=&quot;font-size: 8px;&quot;&gt;Настройки сайта&lt;/span&gt;" style="rounded=0;whiteSpace=wrap;html=1;fillColor=#FFFFCC;" parent="1" vertex="1">
          <mxGeometry x="480" y="375" width="100" height="20" as="geometry" />
        </mxCell>
        <mxCell id="B-I1zD4V9BiK2UbXRFSd-32" value="&lt;p style=&quot;text-align: left;&quot;&gt;&lt;font style=&quot;font-size: 8px;&quot;&gt;Отчеты по продажам&lt;/font&gt;&lt;/p&gt;" style="rounded=0;whiteSpace=wrap;html=1;fillColor=#FFFFCC;" parent="1" vertex="1">
          <mxGeometry x="340" y="330" width="120" height="20" as="geometry" />
        </mxCell>
        <mxCell id="NAVzvwq0vo-NZvIJKuEt-1" value="&lt;span style=&quot;font-size: 8px;&quot;&gt;Ввод данных покупателя&lt;/span&gt;" style="rounded=0;whiteSpace=wrap;html=1;fillColor=#FFFFCC;" parent="1" vertex="1">
          <mxGeometry x="490" y="560" width="100" height="20" as="geometry" />
        </mxCell>
        <mxCell id="NAVzvwq0vo-NZvIJKuEt-4" value="&lt;span style=&quot;font-size: 8px;&quot;&gt;Личный кабинет&lt;/span&gt;" style="rounded=0;whiteSpace=wrap;html=1;fillColor=#FFFFCC;" parent="1" vertex="1">
          <mxGeometry x="210" y="560" width="100" height="20" as="geometry" />
        </mxCell>
        <mxCell id="JsgA1Kp7t1jn5dpFGUc1-3" value="" style="endArrow=classic;html=1;rounded=0;" edge="1" parent="1">
          <mxGeometry width="50" height="50" relative="1" as="geometry">
            <mxPoint x="770" y="639.58" as="sourcePoint" />
            <mxPoint x="620" y="639.58" as="targetPoint" />
          </mxGeometry>
        </mxCell>
        <mxCell id="JsgA1Kp7t1jn5dpFGUc1-4" value="" style="endArrow=none;html=1;rounded=0;" edge="1" parent="1">
          <mxGeometry width="50" height="50" relative="1" as="geometry">
            <mxPoint x="770" y="730" as="sourcePoint" />
            <mxPoint x="770" y="680" as="targetPoint" />
          </mxGeometry>
        </mxCell>
        <mxCell id="JsgA1Kp7t1jn5dpFGUc1-5" value="" style="endArrow=classic;html=1;rounded=0;" edge="1" parent="1">
          <mxGeometry width="50" height="50" relative="1" as="geometry">
            <mxPoint x="770" y="729.58" as="sourcePoint" />
            <mxPoint x="620" y="729.58" as="targetPoint" />
          </mxGeometry>
        </mxCell>
        <mxCell id="JsgA1Kp7t1jn5dpFGUc1-8" value="" style="endArrow=none;html=1;rounded=0;" edge="1" parent="1">
          <mxGeometry width="50" height="50" relative="1" as="geometry">
            <mxPoint x="269.16999999999996" y="375" as="sourcePoint" />
            <mxPoint x="269" y="290" as="targetPoint" />
          </mxGeometry>
        </mxCell>
        <mxCell id="JsgA1Kp7t1jn5dpFGUc1-9" value="" style="endArrow=none;html=1;rounded=0;" edge="1" parent="1">
          <mxGeometry width="50" height="50" relative="1" as="geometry">
            <mxPoint x="270" y="290" as="sourcePoint" />
            <mxPoint x="530" y="290" as="targetPoint" />
          </mxGeometry>
        </mxCell>
        <mxCell id="JsgA1Kp7t1jn5dpFGUc1-14" value="" style="endArrow=none;html=1;rounded=0;exitX=0.5;exitY=0;exitDx=0;exitDy=0;" edge="1" parent="1" source="B-I1zD4V9BiK2UbXRFSd-31">
          <mxGeometry width="50" height="50" relative="1" as="geometry">
            <mxPoint x="529.8" y="360" as="sourcePoint" />
            <mxPoint x="529.8" y="290" as="targetPoint" />
          </mxGeometry>
        </mxCell>
      </root>
    </mxGraphModel>
  </diagram>
</mxfile>
